<svg id="Group_1045" data-name="Group 1045" xmlns="http://www.w3.org/2000/svg" width="317.503" height="156.533" viewBox="0 0 317.503 156.533">
  <g id="Group_917" data-name="Group 917" transform="translate(0 24.754)">
    <path id="Path_256" data-name="Path 256" d="M202.816,91.658l262.006.857c6.374.022,11.529,5.682,11.529,12.656h0c0,6.991-5.176,12.656-11.563,12.656H407.866c-5.043,0-9.132,4.476-9.132,10h0c0,5.521,4.089,10,9.132,10h36.673c6.242,0,11.3,5.538,11.3,12.369h0c0,6.832-5.061,12.371-11.3,12.371H376.621v34.762h94.929c6.263,0,11.341,5.556,11.341,12.411h0c0,6.855-5.076,12.412-11.339,12.412l-247.441.05c-5.948,0-10.77-5.276-10.77-11.786h0c0-6.51,4.822-11.786,10.769-11.786h56.326v-18.27h-101.1c-7.7,0-13.943-6.833-13.943-15.261h0c0-8.429,6.243-15.262,13.943-15.262h83.01c4.981,0,9.018-4.419,9.018-9.869h0c0-5.451-4.038-9.869-9.018-9.869H250.086c-8.192,0-14.833-7.269-14.833-16.235H202.786c-5.6,0-10.142-4.969-10.142-11.1h0C192.644,96.614,197.2,91.64,202.816,91.658Z" transform="translate(-165.389 -91.658)" fill="#f7f7f7"/>
  </g>
  <g id="Group_927" data-name="Group 927" transform="translate(130.301 56.701)">
    <g id="Group_926" data-name="Group 926">
      <g id="Group_918" data-name="Group 918" transform="translate(7.348 1.243)">
        <rect id="Rectangle_10009" data-name="Rectangle 10009" width="128.309" height="92.226" rx="1" fill="#1ea592"/>
      </g>
      <g id="Group_919" data-name="Group 919" transform="translate(22.133 0.001)">
        <rect id="Rectangle_10010" data-name="Rectangle 10010" width="7.205" height="2.485" fill="#283e51"/>
      </g>
      <g id="Group_920" data-name="Group 920" transform="translate(6.106)">
        <path id="Path_257" data-name="Path 257" d="M392.18,205.649H270.248a4.435,4.435,0,0,1-4.431-4.431v-85.85a4.436,4.436,0,0,1,4.431-4.431h7.7v2.485h-7.7a1.948,1.948,0,0,0-1.945,1.945v85.85a1.947,1.947,0,0,0,1.945,1.945H392.18a1.946,1.946,0,0,0,1.945-1.945h2.485A4.435,4.435,0,0,1,392.18,205.649Z" transform="translate(-265.817 -110.938)" fill="#283e51"/>
      </g>
      <g id="Group_921" data-name="Group 921" transform="translate(75.076)">
        <path id="Path_258" data-name="Path 258" d="M369.264,123.644h-2.485v-8.275a1.947,1.947,0,0,0-1.945-1.945H307.441v-2.485h57.393a4.436,4.436,0,0,1,4.431,4.431Z" transform="translate(-307.441 -110.938)" fill="#283e51"/>
      </g>
      <g id="Group_922" data-name="Group 922" transform="translate(13.58 8.5)">
        <rect id="Rectangle_10011" data-name="Rectangle 10011" width="115.15" height="74.841" fill="#fff"/>
      </g>
      <g id="Group_923" data-name="Group 923" transform="translate(1.226 88.004)">
        <path id="Path_259" data-name="Path 259" d="M395.06,174.635H269.823a6.137,6.137,0,0,1-6.058-5.145l-.893-5.441h58.047l2.22,3.188h16.04l2.4-3.188h61.149l-.776,4.732A6.984,6.984,0,0,1,395.06,174.635Z" transform="translate(-262.872 -164.049)" fill="#fff"/>
      </g>
      <g id="Group_924" data-name="Group 924" transform="translate(0 87.803)">
        <path id="Path_260" data-name="Path 260" d="M395.547,175.958H270.309a7.352,7.352,0,0,1-7.284-6.187l-.893-5.44,2.454-.4.891,5.44a4.879,4.879,0,0,0,4.832,4.1H395.547Z" transform="translate(-262.132 -163.928)" fill="#283e51"/>
      </g>
      <g id="Group_925" data-name="Group 925" transform="translate(74.75 86.761)">
        <path id="Path_261" data-name="Path 261" d="M310.647,168.973h-3.4v-2.485h2.163l2.4-3.189h50.17v2.485h-48.93Z" transform="translate(-307.245 -163.299)" fill="#283e51"/>
      </g>
    </g>
  </g>
  <g id="Group_928" data-name="Group 928" transform="translate(142.579 56.701)" opacity="0.3">
    <path id="Path_262" data-name="Path 262" d="M335.791,209.528v.053h2.485V110.938h-1.069v1.243H291.471v-1.243h-7.2v1.243h-3.9v-1.243h-7.7a4.436,4.436,0,0,0-4.431,4.431v83.573h-3.619l-.033-.2-1.228.2h0l-1.226.2.893,5.44a7.333,7.333,0,0,0,3.213,4.944h69.553Z" transform="translate(-262.132 -110.938)" fill="#283e51"/>
  </g>
  <g id="Group_945" data-name="Group 945" transform="translate(108.09 18.048)">
    <g id="Group_944" data-name="Group 944">
      <g id="Group_929" data-name="Group 929" transform="translate(1.243 1.243)">
        <path id="Path_263" data-name="Path 263" d="M347.748,224.361V94.735a6.374,6.374,0,0,0-6.374-6.374H247.155a6.375,6.375,0,0,0-6.376,6.374V224.361Z" transform="translate(-240.779 -88.361)" fill="#17ac9d"/>
      </g>
      <g id="Group_930" data-name="Group 930" transform="translate(8.782 1.243)">
        <path id="Path_264" data-name="Path 264" d="M336.024,224.361V94.735c0-3.521-2.419-6.374-5.4-6.374H250.734c-2.984,0-5.405,2.853-5.405,6.374V224.361Z" transform="translate(-245.329 -88.361)" fill="#fff"/>
      </g>
      <g id="Group_931" data-name="Group 931" transform="translate(1.243 1.243)">
        <path id="Path_265" data-name="Path 265" d="M240.779,104.886V93.721a5.361,5.361,0,0,1,5.36-5.36h96.249a5.36,5.36,0,0,1,5.36,5.36v11.165Z" transform="translate(-240.779 -88.361)" fill="#17ac9d"/>
      </g>
      <g id="Group_932" data-name="Group 932" transform="translate(0 0)">
        <path id="Path_266" data-name="Path 266" d="M242.515,148.9h-2.485V94.214a6.611,6.611,0,0,1,6.6-6.6h14.2V90.1h-14.2a4.122,4.122,0,0,0-4.119,4.118Z" transform="translate(-240.029 -87.611)" fill="#283e51"/>
      </g>
      <g id="Group_933" data-name="Group 933" transform="translate(39.391 0)">
        <path id="Path_267" data-name="Path 267" d="M333.866,224.906H331.38V94.214a4.121,4.121,0,0,0-4.118-4.118H263.8V87.611h63.461a6.609,6.609,0,0,1,6.6,6.6Z" transform="translate(-263.802 -87.611)" fill="#283e51"/>
      </g>
      <g id="Group_934" data-name="Group 934" transform="translate(25.996)">
        <rect id="Rectangle_10012" data-name="Rectangle 10012" width="7.348" height="2.485" fill="#283e51"/>
      </g>
      <g id="Group_935" data-name="Group 935" transform="translate(1.243 16.816)">
        <rect id="Rectangle_10013" data-name="Rectangle 10013" width="106.97" height="2.485" fill="#283e51"/>
      </g>
      <g id="Group_936" data-name="Group 936" transform="translate(13.528 9.172)">
        <rect id="Rectangle_10014" data-name="Rectangle 10014" width="2.489" height="2.485" fill="#283e51"/>
      </g>
      <g id="Group_937" data-name="Group 937" transform="translate(20.75 9.172)">
        <rect id="Rectangle_10015" data-name="Rectangle 10015" width="2.49" height="2.485" fill="#283e51"/>
      </g>
      <g id="Group_938" data-name="Group 938" transform="translate(27.974 9.172)">
        <rect id="Rectangle_10016" data-name="Rectangle 10016" width="2.49" height="2.485" fill="#283e51"/>
      </g>
      <g id="Group_939" data-name="Group 939" transform="translate(15.573 30.398)">
        <rect id="Rectangle_10017" data-name="Rectangle 10017" width="78.309" height="30.888" fill="#17ac9d"/>
      </g>
      <g id="Group_940" data-name="Group 940" transform="translate(15.581 80.899)">
        <rect id="Rectangle_10018" data-name="Rectangle 10018" width="23.81" height="30.888" fill="#eaeaea"/>
      </g>
      <g id="Group_941" data-name="Group 941" transform="translate(42.831 80.899)">
        <rect id="Rectangle_10019" data-name="Rectangle 10019" width="23.81" height="30.888" fill="#eaeaea"/>
      </g>
      <g id="Group_942" data-name="Group 942" transform="translate(70.08 80.899)">
        <rect id="Rectangle_10020" data-name="Rectangle 10020" width="23.81" height="30.888" fill="#eaeaea"/>
      </g>
      <g id="Group_943" data-name="Group 943" transform="translate(38.087 69.815)">
        <rect id="Rectangle_10021" data-name="Rectangle 10021" width="33.297" height="2.485" fill="#283e51"/>
      </g>
    </g>
  </g>
  <g id="Group_962" data-name="Group 962" transform="translate(211.612 71.522)">
    <g id="Group_954" data-name="Group 954" transform="translate(31.261)">
      <g id="Group_946" data-name="Group 946" transform="translate(23.06 46.18)">
        <rect id="Rectangle_10022" data-name="Rectangle 10022" width="2.485" height="9.553" fill="#283e51"/>
      </g>
      <g id="Group_947" data-name="Group 947" transform="translate(1.243 1.241)">
        <path id="Path_268" data-name="Path 268" d="M353.88,120.632a23.06,23.06,0,1,0,23.06,23.06A23.06,23.06,0,0,0,353.88,120.632Zm0,40.579A17.519,17.519,0,1,1,371.4,143.692,17.519,17.519,0,0,1,353.88,161.211Z" transform="translate(-330.82 -120.632)" fill="#eaeaea"/>
      </g>
      <g id="Group_948" data-name="Group 948">
        <path id="Path_269" data-name="Path 269" d="M354.373,168.487a24.3,24.3,0,1,1,24.3-24.3A24.329,24.329,0,0,1,354.373,168.487Zm0-46.119a21.817,21.817,0,1,0,21.817,21.816A21.84,21.84,0,0,0,354.373,122.368Z" transform="translate(-330.07 -119.883)" fill="#283e51"/>
      </g>
      <g id="Group_949" data-name="Group 949" transform="translate(22.102 8.373)">
        <path id="Path_270" data-name="Path 270" d="M360.489,142.018H358a14.615,14.615,0,0,0-14.595-14.6v-2.485A17.1,17.1,0,0,1,360.489,142.018Z" transform="translate(-343.409 -124.936)" fill="#283e51"/>
      </g>
      <g id="Group_950" data-name="Group 950" transform="translate(19.747 52.918)">
        <rect id="Rectangle_10023" data-name="Rectangle 10023" width="9.11" height="30.538" fill="#17ac9d"/>
      </g>
      <g id="Group_951" data-name="Group 951" transform="translate(18.505 51.676)">
        <path id="Path_271" data-name="Path 271" d="M349.259,184.092H344.81a3.576,3.576,0,0,1-3.572-3.572V151.07h11.6v16.2h-2.485V153.555h-6.625v26.964a1.088,1.088,0,0,0,1.087,1.087h4.449a1.089,1.089,0,0,0,1.089-1.087v-4.268h2.485v4.268A3.577,3.577,0,0,1,349.259,184.092Z" transform="translate(-341.238 -151.07)" fill="#283e51"/>
      </g>
      <g id="Group_952" data-name="Group 952" transform="translate(27.615 70.192)">
        <rect id="Rectangle_10024" data-name="Rectangle 10024" width="2.485" height="4.784" fill="#283e51"/>
      </g>
      <g id="Group_953" data-name="Group 953" transform="translate(19.525 58.232)">
        <rect id="Rectangle_10025" data-name="Rectangle 10025" width="9.554" height="2.485" fill="#283e51"/>
      </g>
    </g>
    <g id="Group_955" data-name="Group 955" transform="translate(17.451 7.19)">
      <rect id="Rectangle_10026" data-name="Rectangle 10026" width="14.399" height="2.485" fill="#283e51"/>
    </g>
    <g id="Group_956" data-name="Group 956" transform="translate(17.451 15.109)">
      <rect id="Rectangle_10027" data-name="Rectangle 10027" width="11.429" height="2.485" fill="#283e51"/>
    </g>
    <g id="Group_957" data-name="Group 957" transform="translate(0.186 23.028)">
      <rect id="Rectangle_10028" data-name="Rectangle 10028" width="28.694" height="2.485" fill="#283e51"/>
    </g>
    <g id="Group_958" data-name="Group 958" transform="translate(0 30.947)">
      <rect id="Rectangle_10029" data-name="Rectangle 10029" width="28.88" height="2.485" fill="#283e51"/>
    </g>
    <g id="Group_959" data-name="Group 959" transform="translate(0 38.866)">
      <rect id="Rectangle_10030" data-name="Rectangle 10030" width="31.85" height="2.485" fill="#283e51"/>
    </g>
    <g id="Group_960" data-name="Group 960" transform="translate(0 46.786)">
      <rect id="Rectangle_10031" data-name="Rectangle 10031" width="41.91" height="2.485" fill="#283e51"/>
    </g>
    <g id="Group_961" data-name="Group 961" transform="translate(0.398 4.928)">
      <path id="Path_272" data-name="Path 272" d="M322.884,136.434l-1.261-2.933h-5.692l-1.263,2.933h-3.224l5.866-13.577h2.933l5.867,13.577Zm-4.1-9.538-1.708,3.944h3.4Z" transform="translate(-311.444 -122.857)" fill="#283e51"/>
    </g>
  </g>
  <g id="Group_982" data-name="Group 982" transform="translate(161.115 110.112)">
    <g id="Group_964" data-name="Group 964" transform="translate(1.243 6.149)">
      <g id="Group_963" data-name="Group 963">
        <path id="Path_273" data-name="Path 273" d="M274.225,165.882a8.328,8.328,0,0,1-.119-1.814c0-.146.01-.32.01-.563a21.457,21.457,0,0,1,6.3-15.209c.147-.147.25-.255.335-.346a8.22,8.22,0,0,1,1.195-1.065l3.518,4.635a2.787,2.787,0,0,0-.484.426c-.113.121-.25.265-.447.464a15.636,15.636,0,0,0-4.6,11.1c0,.313-.007.54-.012.727a2.916,2.916,0,0,0,.053.757Z" transform="translate(-274.099 -146.883)" fill="#1ea592"/>
      </g>
    </g>
    <g id="Group_966" data-name="Group 966" transform="translate(2.145 27.237)">
      <g id="Group_965" data-name="Group 965">
        <path id="Path_274" data-name="Path 274" d="M295.267,176.654a21.5,21.5,0,0,1-20.624-15.39l5.576-1.654a15.865,15.865,0,0,0,.588,1.642,15.775,15.775,0,0,0,8.354,8.353,15.668,15.668,0,0,0,17.2-3.365,15.637,15.637,0,0,0,3.365-4.989l5.357,2.267a21.492,21.492,0,0,1-19.817,13.137Z" transform="translate(-274.643 -159.61)" fill="#eaeaea"/>
      </g>
    </g>
    <g id="Group_968" data-name="Group 968" transform="translate(12.45 1.268)">
      <g id="Group_967" data-name="Group 967">
        <path id="Path_275" data-name="Path 275" d="M312.229,169.9l-5.692-1.2a15.823,15.823,0,0,0,.338-3.254,15.718,15.718,0,0,0-9.586-14.46,15.835,15.835,0,0,0-12.215,0c-.265.113-.456.187-.615.249a2.727,2.727,0,0,0-.6.3l-2.994-4.988a8.273,8.273,0,0,1,1.48-.734c.119-.046.265-.1.466-.187a21.647,21.647,0,0,1,16.747,0,21.5,21.5,0,0,1,13.138,19.817A21.683,21.683,0,0,1,312.229,169.9Z" transform="translate(-280.862 -143.937)" fill="#17ac9d"/>
      </g>
    </g>
    <g id="Group_970" data-name="Group 970" transform="translate(0 5.197)">
      <g id="Group_969" data-name="Group 969">
        <path id="Path_276" data-name="Path 276" d="M275.306,167.4a1.929,1.929,0,0,1-1.919-1.75,9.123,9.123,0,0,1-.032-1.243c0-.141.01-.3.01-.529a22.628,22.628,0,0,1,3.625-12.343,23.128,23.128,0,0,1,3.1-3.806l.192-.2a10.11,10.11,0,0,1,.772-.756,1.972,1.972,0,0,1,1.468-.461,1.935,1.935,0,0,1,1.329.749l2.716,3.577a1.929,1.929,0,0,1-.189,2.54l-.476.479a14.4,14.4,0,0,0-4.235,10.219l-.008.666a2.312,2.312,0,0,0,.036.628l.191,1.228-6.288.976A1.906,1.906,0,0,1,275.306,167.4Zm6.944-18.333c-.033.035-.068.071-.1.109l-.29.3a20.7,20.7,0,0,0-2.77,3.4,20.184,20.184,0,0,0-3.236,11.007c0,.262,0,.449-.012.6,0,.119,0,.23-.007.341l3.342-.519.007-.427a16.877,16.877,0,0,1,4.963-11.975l.147-.149Z" transform="translate(-273.349 -146.309)" fill="#283e51"/>
      </g>
    </g>
    <g id="Group_972" data-name="Group 972" transform="translate(1.052 26.134)">
      <g id="Group_971" data-name="Group 971">
        <path id="Path_277" data-name="Path 277" d="M295.7,178.334a22.779,22.779,0,0,1-20.962-13.894c-.245-.582-.467-1.176-.664-1.775a1.814,1.814,0,0,1,.121-1.417,1.847,1.847,0,0,1,1.11-.911l4.446-1.319A1.826,1.826,0,0,1,282,160.2c.116.343.244.683.384,1.012a14.545,14.545,0,0,0,10.391,8.542,13.908,13.908,0,0,0,5.841,0,14.574,14.574,0,0,0,10.169-8.035,1.866,1.866,0,0,1,2.421-.936l4.2,1.775a1.884,1.884,0,0,1,.983,2.51A22.741,22.741,0,0,1,295.7,178.334Zm-19.044-15.806q.174.477.371.944a20.281,20.281,0,0,0,36.828,1.128l-3.077-1.3a17.054,17.054,0,0,1-11.632,8.88,16.319,16.319,0,0,1-6.9,0,17.037,17.037,0,0,1-12.154-10c-.084-.2-.162-.4-.239-.595Z" transform="translate(-273.983 -158.944)" fill="#283e51"/>
      </g>
    </g>
    <g id="Group_975" data-name="Group 975" transform="translate(11.443)">
      <g id="Group_973" data-name="Group 973">
        <path id="Path_278" data-name="Path 278" d="M312.134,171.523a1.833,1.833,0,0,1-.379-.04l-4.489-.946a1.857,1.857,0,0,1-1.443-2.138,14.453,14.453,0,0,0-19.865-15.773l-.709.3a1.861,1.861,0,0,1-2.351-.737l-2.378-3.964a1.857,1.857,0,0,1,.711-2.592,8.948,8.948,0,0,1,1.057-.477l.288-.114a24.323,24.323,0,0,1,8.567-1.869l.068,2.484a21.864,21.864,0,0,0-7.693,1.687l-.333.131-.174.07,1.737,2.895.063-.027.177-.073a17.032,17.032,0,0,1,13.186,0,16.95,16.95,0,0,1,10.19,17.89l3.268.689a20.565,20.565,0,0,0,.219-2.974,20.288,20.288,0,0,0-12.373-18.671l.968-2.29a22.734,22.734,0,0,1,13.89,20.961,22.994,22.994,0,0,1-.363,4.056,1.84,1.84,0,0,1-.789,1.206A1.882,1.882,0,0,1,312.134,171.523Z" transform="translate(-280.255 -143.172)" fill="#283e51"/>
      </g>
      <g id="Group_974" data-name="Group 974" transform="translate(14.874 0.35)">
        <path id="Path_279" data-name="Path 279" d="M291.721,146.45a21.3,21.3,0,0,0-2.49-.625l.462-2.442a24.02,24.02,0,0,1,2.775.7Z" transform="translate(-289.231 -143.383)" fill="#283e51"/>
      </g>
    </g>
    <g id="Group_976" data-name="Group 976" transform="translate(12.608 22.159)">
      <rect id="Rectangle_10032" data-name="Rectangle 10032" width="4.448" height="8.682" fill="#eaeaea"/>
    </g>
    <g id="Group_977" data-name="Group 977" transform="translate(20.141 18.734)">
      <rect id="Rectangle_10033" data-name="Rectangle 10033" width="4.448" height="12.107" fill="#eaeaea"/>
    </g>
    <g id="Group_978" data-name="Group 978" transform="translate(27.674 13.729)">
      <rect id="Rectangle_10034" data-name="Rectangle 10034" width="4.448" height="17.112" fill="#eaeaea"/>
    </g>
    <g id="Group_979" data-name="Group 979" transform="translate(11.364 20.916)">
      <path id="Path_280" data-name="Path 280" d="M287.141,166.963h-6.934V155.8h6.934Zm-4.449-2.485h1.964v-6.2h-1.964Z" transform="translate(-280.207 -155.795)" fill="#283e51"/>
    </g>
    <g id="Group_980" data-name="Group 980" transform="translate(18.899 17.491)">
      <path id="Path_281" data-name="Path 281" d="M291.687,168.321h-6.933V153.728h6.933Zm-4.447-2.485H289.2v-9.622H287.24Z" transform="translate(-284.754 -153.728)" fill="#283e51"/>
    </g>
    <g id="Group_981" data-name="Group 981" transform="translate(26.431 12.485)">
      <path id="Path_282" data-name="Path 282" d="M296.233,170.306H289.3v-19.6h6.933Zm-4.447-2.485h1.962V153.192h-1.962Z" transform="translate(-289.3 -150.707)" fill="#283e51"/>
    </g>
  </g>
  <g id="Group_983" data-name="Group 983" transform="translate(113.142 81.618)" opacity="0.3">
    <path id="Path_283" data-name="Path 283" d="M264.151,199.648H265.4a33.4,33.4,0,0,0-5.657-18.626h3.624v1.243h1.528a5.206,5.206,0,0,0,5.2-5.2v-45.89a5.206,5.206,0,0,0-5.2-5.2H253.125v1.243h-4.5v-1.243h-7.847v73.672h23.372Z" transform="translate(-240.779 -125.976)" fill="#283e51"/>
  </g>
  <g id="Group_1017" data-name="Group 1017" transform="translate(65.961 81.618)">
    <g id="Group_984" data-name="Group 984" transform="translate(1.242 1.243)">
      <rect id="Rectangle_10035" data-name="Rectangle 10035" width="74.251" height="53.803" rx="2.024" fill="#fff"/>
    </g>
    <g id="Group_985" data-name="Group 985" transform="translate(1.241 1.243)">
      <path id="Path_284" data-name="Path 284" d="M210.906,138.2v-7.75a3.722,3.722,0,0,1,3.722-3.722h66.809a3.722,3.722,0,0,1,3.722,3.722v7.75Z" transform="translate(-210.906 -126.726)" fill="#eaeaea"/>
    </g>
    <g id="Group_986" data-name="Group 986" transform="translate(1.242 11.672)">
      <rect id="Rectangle_10036" data-name="Rectangle 10036" width="74.251" height="2.485" fill="#283e51"/>
    </g>
    <g id="Group_987" data-name="Group 987" transform="translate(9.769 6.367)">
      <rect id="Rectangle_10037" data-name="Rectangle 10037" width="2.971" height="2.485" fill="#283e51"/>
    </g>
    <g id="Group_988" data-name="Group 988" transform="translate(16.647 6.367)">
      <rect id="Rectangle_10038" data-name="Rectangle 10038" width="2.972" height="2.485" fill="#283e51"/>
    </g>
    <g id="Group_989" data-name="Group 989" transform="translate(23.525 6.367)">
      <rect id="Rectangle_10039" data-name="Rectangle 10039" width="2.971" height="2.485" fill="#283e51"/>
    </g>
    <g id="Group_990" data-name="Group 990" transform="translate(59.772)">
      <path id="Path_285" data-name="Path 285" d="M257.995,182.265h-1.528V179.78h1.528a2.718,2.718,0,0,0,2.714-2.714v-45.89a2.718,2.718,0,0,0-2.714-2.714H246.23v-2.485h11.764a5.206,5.206,0,0,1,5.2,5.2v45.89A5.206,5.206,0,0,1,257.995,182.265Z" transform="translate(-246.23 -125.976)" fill="#283e51"/>
    </g>
    <g id="Group_991" data-name="Group 991" transform="translate(45.891)">
      <rect id="Rectangle_10040" data-name="Rectangle 10040" width="9.383" height="2.485" fill="#283e51"/>
    </g>
    <g id="Group_992" data-name="Group 992">
      <path id="Path_286" data-name="Path 286" d="M216.521,182.265h-1.167a5.2,5.2,0,0,1-5.2-5.2v-45.89a5.2,5.2,0,0,1,5.2-5.2H254.2v2.485H215.355a2.716,2.716,0,0,0-2.712,2.714v45.89a2.716,2.716,0,0,0,2.712,2.714h1.167Z" transform="translate(-210.157 -125.976)" fill="#283e51"/>
    </g>
    <g id="Group_993" data-name="Group 993" transform="translate(6.076 41.312)">
      <path id="Path_287" data-name="Path 287" d="M278.545,183.269a32.361,32.361,0,0,0-64.721,0Z" transform="translate(-213.824 -150.908)" fill="#1ea592"/>
    </g>
    <g id="Group_994" data-name="Group 994" transform="translate(4.833 40.069)">
      <path id="Path_288" data-name="Path 288" d="M280.283,183.761H277.8a31.119,31.119,0,0,0-62.238,0h-2.485a33.6,33.6,0,0,1,67.209,0Z" transform="translate(-213.074 -150.158)" fill="#283e51"/>
    </g>
    <g id="Group_995" data-name="Group 995" transform="translate(11.037 46.273)">
      <path id="Path_289" data-name="Path 289" d="M271.618,181.3a27.4,27.4,0,1,0-54.8,0Z" transform="translate(-216.818 -153.902)" fill="#eaeaea"/>
    </g>
    <g id="Group_996" data-name="Group 996" transform="translate(23.522 58.758)">
      <path id="Path_290" data-name="Path 290" d="M254.182,176.351a14.914,14.914,0,0,0-29.829,0Z" transform="translate(-224.353 -161.437)" fill="#fff"/>
    </g>
    <g id="Group_997" data-name="Group 997" transform="translate(35.037 70.272)">
      <path id="Path_291" data-name="Path 291" d="M238.1,171.786a3.4,3.4,0,0,0-6.8,0Z" transform="translate(-231.302 -168.386)" fill="#1ea592"/>
    </g>
    <g id="Group_998" data-name="Group 998" transform="translate(9.794 45.03)">
      <path id="Path_292" data-name="Path 292" d="M273.353,181.794h-2.485a26.157,26.157,0,1,0-52.314,0h-2.485a28.642,28.642,0,0,1,57.285,0Z" transform="translate(-216.068 -153.152)" fill="#283e51"/>
    </g>
    <g id="Group_999" data-name="Group 999" transform="translate(37.129 45.835)">
      <rect id="Rectangle_10041" data-name="Rectangle 10041" width="5.243" height="2.486" transform="translate(0 5.243) rotate(-89.293)" fill="#283e51"/>
    </g>
    <g id="Group_1000" data-name="Group 1000" transform="translate(47.378 49.013)">
      <rect id="Rectangle_10042" data-name="Rectangle 10042" width="5.053" height="2.487" transform="translate(0 4.344) rotate(-59.28)" fill="#283e51"/>
    </g>
    <g id="Group_1001" data-name="Group 1001" transform="translate(56.765 58.896)">
      <rect id="Rectangle_10043" data-name="Rectangle 10043" width="5.499" height="2.486" transform="translate(0 2.688) rotate(-29.268)" fill="#283e51"/>
    </g>
    <g id="Group_1002" data-name="Group 1002" transform="translate(14.091 58.871)">
      <rect id="Rectangle_10044" data-name="Rectangle 10044" width="2.486" height="5.499" transform="translate(0 2.136) rotate(-59.212)" fill="#283e51"/>
    </g>
    <g id="Group_1003" data-name="Group 1003" transform="translate(24.798 49.02)">
      <rect id="Rectangle_10045" data-name="Rectangle 10045" width="2.485" height="5.053" transform="matrix(0.873, -0.488, 0.488, 0.873, 0, 1.212)" fill="#283e51"/>
    </g>
    <g id="Group_1004" data-name="Group 1004" transform="translate(38.469 59.64)">
      <path id="Path_293" data-name="Path 293" d="M233.374,173.427l12.415-11.457.686.68L235.14,175.176Z" transform="translate(-233.374 -161.969)" fill="#1ea592"/>
    </g>
    <g id="Group_1008" data-name="Group 1008" transform="translate(30.571 30.13)">
      <g id="Group_1005" data-name="Group 1005" transform="translate(6.623 5.176)">
        <rect id="Rectangle_10046" data-name="Rectangle 10046" width="2.485" height="6.005" fill="#283e51"/>
      </g>
      <g id="Group_1006" data-name="Group 1006" transform="translate(1.243 1.242)">
        <rect id="Rectangle_10047" data-name="Rectangle 10047" width="13.107" height="6.473" rx="0.803" fill="#1ea592"/>
      </g>
      <g id="Group_1007" data-name="Group 1007">
        <path id="Path_294" data-name="Path 294" d="M241.626,153.118H231.18a2.577,2.577,0,0,1-2.573-2.573v-3.813a2.575,2.575,0,0,1,2.573-2.572h10.446a2.574,2.574,0,0,1,2.573,2.572v3.813A2.576,2.576,0,0,1,241.626,153.118Zm-10.446-6.472-.088,3.9,10.533.088a.087.087,0,0,0,.088-.088v-3.813Z" transform="translate(-228.607 -144.16)" fill="#283e51"/>
      </g>
    </g>
    <g id="Group_1012" data-name="Group 1012" transform="translate(52.031 35.694)">
      <g id="Group_1009" data-name="Group 1009" transform="translate(2.752 5.296)">
        <rect id="Rectangle_10048" data-name="Rectangle 10048" width="4.613" height="2.485" transform="translate(0 3.995) rotate(-59.995)" fill="#283e51"/>
      </g>
      <g id="Group_1010" data-name="Group 1010" transform="translate(0.755 0.757)">
        <rect id="Rectangle_10049" data-name="Rectangle 10049" width="10.068" height="4.972" rx="0.803" transform="translate(2.487 0) rotate(30.01)" fill="#1ea592"/>
      </g>
      <g id="Group_1011" data-name="Group 1011">
        <path id="Path_295" data-name="Path 295" d="M250.54,158.37a2.564,2.564,0,0,1-1.284-.345l-6.412-3.7a2.579,2.579,0,0,1-.941-3.516l1.157-2a2.571,2.571,0,0,1,3.516-.941l6.411,3.7a2.577,2.577,0,0,1,.943,3.516l-1.157,2A2.572,2.572,0,0,1,250.54,158.37Zm-.041-2.5a.089.089,0,0,0,.121-.031l1.157-2-6.446-3.824-1.276,2.031Z" transform="translate(-241.558 -147.518)" fill="#283e51"/>
      </g>
    </g>
    <g id="Group_1016" data-name="Group 1016" transform="translate(11.632 35.697)">
      <g id="Group_1013" data-name="Group 1013" transform="translate(5.505 5.293)">
        <rect id="Rectangle_10050" data-name="Rectangle 10050" width="2.485" height="4.613" transform="matrix(0.866, -0.5, 0.5, 0.866, 0, 1.243)" fill="#283e51"/>
      </g>
      <g id="Group_1014" data-name="Group 1014" transform="translate(0.757 0.754)">
        <rect id="Rectangle_10051" data-name="Rectangle 10051" width="10.068" height="4.972" rx="0.803" transform="matrix(-0.866, 0.5, -0.5, -0.866, 11.205, 4.305)" fill="#1ea592"/>
      </g>
      <g id="Group_1015" data-name="Group 1015">
        <path id="Path_296" data-name="Path 296" d="M220.912,158.37a2.573,2.573,0,0,1-2.232-1.287l-1.157-2a2.575,2.575,0,0,1,.941-3.516l6.414-3.7a2.577,2.577,0,0,1,3.514.94l1.157,2a2.57,2.57,0,0,1-.94,3.514l-6.416,3.7A2.556,2.556,0,0,1,220.912,158.37Zm5.33-8.323-6.535,3.672,1.125,2.121.119.031,6.414-3.7Z" transform="translate(-217.177 -147.519)" fill="#283e51"/>
      </g>
    </g>
  </g>
  <g id="Group_1018" data-name="Group 1018" transform="translate(52.1 154.048)">
    <rect id="Rectangle_10052" data-name="Rectangle 10052" width="241.449" height="2.485" fill="#283e51"/>
  </g>
  <g id="Group_1019" data-name="Group 1019" transform="translate(44.54 154.048)">
    <rect id="Rectangle_10053" data-name="Rectangle 10053" width="4.539" height="2.485" fill="#283e51"/>
  </g>
  <g id="Group_1020" data-name="Group 1020" transform="translate(296.138 154.048)">
    <rect id="Rectangle_10054" data-name="Rectangle 10054" width="10.024" height="2.485" transform="translate(0)" fill="#283e51"/>
  </g>
  <g id="Group_1023" data-name="Group 1023" transform="translate(230.054 18.865)">
    <g id="Group_1021" data-name="Group 1021" transform="translate(0 3.541)">
      <path id="Path_297" data-name="Path 297" d="M326.08,92.726H319a1.243,1.243,0,0,1,0-2.485h7.082a1.243,1.243,0,1,1,0,2.485Z" transform="translate(-317.755 -90.241)" fill="#283e51"/>
    </g>
    <g id="Group_1022" data-name="Group 1022" transform="translate(3.539)">
      <path id="Path_298" data-name="Path 298" d="M321.134,97.671a1.243,1.243,0,0,1-1.243-1.243V89.347a1.243,1.243,0,0,1,2.485,0v7.082A1.242,1.242,0,0,1,321.134,97.671Z" transform="translate(-319.891 -88.104)" fill="#283e51"/>
    </g>
  </g>
  <g id="Group_1026" data-name="Group 1026" transform="translate(39.757 66.111)">
    <g id="Group_1024" data-name="Group 1024" transform="translate(0 3.541)">
      <path id="Path_299" data-name="Path 299" d="M197.708,121.239h-7.082a1.243,1.243,0,1,1,0-2.485h7.082a1.243,1.243,0,1,1,0,2.485Z" transform="translate(-189.383 -118.754)" fill="#283e51"/>
    </g>
    <g id="Group_1025" data-name="Group 1025" transform="translate(3.539)">
      <path id="Path_300" data-name="Path 300" d="M192.762,126.184a1.243,1.243,0,0,1-1.243-1.243V117.86a1.243,1.243,0,0,1,2.485,0v7.082A1.243,1.243,0,0,1,192.762,126.184Z" transform="translate(-191.519 -116.617)" fill="#283e51"/>
    </g>
  </g>
  <g id="Group_1029" data-name="Group 1029" transform="translate(91.224 4.322)">
    <g id="Group_1027" data-name="Group 1027">
      <path id="Path_301" data-name="Path 301" d="M227.014,86.82a1.242,1.242,0,0,1-.878-2.121l5.007-5.007a1.243,1.243,0,1,1,1.758,1.758l-5.007,5.007A1.245,1.245,0,0,1,227.014,86.82Z" transform="translate(-225.771 -79.327)" fill="#283e51"/>
    </g>
    <g id="Group_1028" data-name="Group 1028">
      <path id="Path_302" data-name="Path 302" d="M232.021,86.82a1.241,1.241,0,0,1-.878-.363l-5.007-5.007a1.243,1.243,0,0,1,1.758-1.758L232.9,84.7a1.242,1.242,0,0,1-.88,2.121Z" transform="translate(-225.771 -79.327)" fill="#283e51"/>
    </g>
  </g>
  <g id="Group_1032" data-name="Group 1032" transform="translate(297.404 109.244)">
    <g id="Group_1030" data-name="Group 1030" transform="translate(0)">
      <path id="Path_303" data-name="Path 303" d="M364.223,150.141a1.242,1.242,0,0,1-.878-2.121l5.007-5.007a1.243,1.243,0,0,1,1.756,1.758l-5.007,5.007A1.238,1.238,0,0,1,364.223,150.141Z" transform="translate(-362.98 -142.648)" fill="#283e51"/>
    </g>
    <g id="Group_1031" data-name="Group 1031" transform="translate(0)">
      <path id="Path_304" data-name="Path 304" d="M369.23,150.141a1.238,1.238,0,0,1-.878-.363l-5.007-5.007a1.243,1.243,0,0,1,1.756-1.758l5.007,5.007a1.242,1.242,0,0,1-.878,2.121Z" transform="translate(-362.98 -142.648)" fill="#283e51"/>
    </g>
  </g>
  <g id="Group_1033" data-name="Group 1033" transform="translate(107.033 6.826)">
    <rect id="Rectangle_10055" data-name="Rectangle 10055" width="28.824" height="2.485" fill="#283e51"/>
  </g>
  <g id="Group_1034" data-name="Group 1034" transform="translate(125.358)">
    <rect id="Rectangle_10056" data-name="Rectangle 10056" width="76.598" height="2.485" fill="#283e51"/>
  </g>
  <g id="Group_1035" data-name="Group 1035" transform="translate(33.703 121.987)">
    <rect id="Rectangle_10057" data-name="Rectangle 10057" width="35.984" height="2.485" fill="#283e51"/>
  </g>
  <g id="Group_1036" data-name="Group 1036" transform="translate(268.896 56.701)">
    <rect id="Rectangle_10058" data-name="Rectangle 10058" width="28.94" height="2.485" transform="translate(0)" fill="#283e51"/>
  </g>
  <g id="Group_1037" data-name="Group 1037" transform="translate(301.15 56.701)">
    <rect id="Rectangle_10059" data-name="Rectangle 10059" width="5.011" height="2.485" transform="translate(0)" fill="#283e51"/>
  </g>
  <g id="Group_1038" data-name="Group 1038" transform="translate(136.338 6.826)">
    <rect id="Rectangle_10060" data-name="Rectangle 10060" width="5.916" height="2.485" fill="#283e51"/>
  </g>
  <g id="Group_1039" data-name="Group 1039" transform="translate(51.46 69.651)">
    <rect id="Rectangle_10061" data-name="Rectangle 10061" width="28.825" height="2.485" fill="#283e51"/>
  </g>
  <g id="Group_1040" data-name="Group 1040" transform="translate(80.379 69.651)">
    <rect id="Rectangle_10062" data-name="Rectangle 10062" width="5.916" height="2.485" fill="#283e51"/>
  </g>
  <g id="Group_1041" data-name="Group 1041" transform="translate(217.375 9.091)">
    <path id="Path_305" data-name="Path 305" d="M312.669,83.983a1.778,1.778,0,1,1-1.778-1.778A1.778,1.778,0,0,1,312.669,83.983Z" transform="translate(-309.113 -82.205)" fill="#283e51"/>
  </g>
  <g id="Group_1042" data-name="Group 1042" transform="translate(64.465 26.685)">
    <path id="Path_306" data-name="Path 306" d="M207.85,94.6a1.778,1.778,0,1,1-1.778-1.778A1.779,1.779,0,0,1,207.85,94.6Z" transform="translate(-204.294 -92.823)" fill="#283e51"/>
  </g>
  <g id="Group_1043" data-name="Group 1043" transform="translate(248.583 46.668)">
    <path id="Path_307" data-name="Path 307" d="M333.3,106.661a1.778,1.778,0,1,1-1.778-1.778A1.778,1.778,0,0,1,333.3,106.661Z" transform="translate(-329.747 -104.883)" fill="#283e51"/>
  </g>
  <g id="Group_1044" data-name="Group 1044" transform="translate(296.058 79.361)">
    <path id="Path_308" data-name="Path 308" d="M365.724,126.392a1.778,1.778,0,1,1-1.778-1.778A1.778,1.778,0,0,1,365.724,126.392Z" transform="translate(-362.168 -124.614)" fill="#283e51"/>
  </g>
</svg>
